<?xml version="1.0" encoding="UTF-8"?>
<svg width="805px" height="858px" viewBox="0 0 805 858" version="1.1" xmlns="http://www.w3.org/2000/svg" xmlns:xlink="http://www.w3.org/1999/xlink">
    <!-- Generator: Sketch 61.2 (89653) - https://sketch.com -->
    <title>bg_path</title>
    <desc>Created with Sketch.</desc>
    <g id="Page-1" stroke="none" stroke-width="1" fill="none" fill-rule="evenodd">
        <g id="Desktop-HD-Copy" transform="translate(-635.000000, 0.000000)" fill="#FF6282">
            <path d="M648.088116,4.63384048 C654.430379,4.81574182 660.565385,7.05686856 666.645024,8.87271448 C751.596744,34.2458055 685.610443,119.796261 724.997888,176.333685 C754.960976,219.343225 823.807663,212.995091 844.603813,257.221289 C868.569189,308.187331 830.093762,377.507337 871.127182,419.585432 C919.657954,469.351756 1006.13554,462.615619 1066.72703,488.985179 C1111.7886,508.596084 1112.70957,549.853694 1122.07793,591.648817 C1127.93741,617.789728 1141.77265,635.786324 1160.62368,654.286723 C1194.68342,687.712962 1259.66857,676.706572 1296.20613,707.05816 C1323.35002,729.606462 1317.12736,766.556428 1335.39879,794.584 C1365.04449,840.059209 1443.42861,872.259102 1496,855.498728 L1496,-40.6777594 L591,-87 C609.438502,-26.4734977 628.467874,4.07111581 648.088116,4.63384048 Z" id="bg_path"></path>
        </g>
    </g>
</svg>