<?xml version="1.0" encoding="UTF-8"?>
<svg width="14px" height="21px" viewBox="0 0 14 21" version="1.1" xmlns="http://www.w3.org/2000/svg" xmlns:xlink="http://www.w3.org/1999/xlink">
    <!-- Generator: Sketch 61.2 (89653) - https://sketch.com -->
    <title>lock_icon</title>
    <desc>Created with Sketch.</desc>
    <g id="Page-1" stroke="none" stroke-width="1" fill="none" fill-rule="evenodd">
        <g id="Desktop-HD-Copy" transform="translate(-1029.000000, -76.000000)" fill="#FFFFFF" fill-rule="nonzero">
            <g id="Group-6" transform="translate(1029.000000, 76.000000)">
                <path d="M11.1041667,8.33752083 L11.1041667,4.27083333 C11.1041667,1.91247917 9.19254167,0 6.83333333,0 C4.47327083,0 2.5625,1.91247917 2.5625,4.27083333 L2.5625,8.33752083 C1.0019375,9.58972917 0,11.5098958 0,13.6666667 C0,17.440375 3.059625,20.5 6.83333333,20.5 C10.6070417,20.5 13.6666667,17.440375 13.6666667,13.6666667 C13.6666667,11.5098958 12.6647292,9.58972917 11.1041667,8.33752083 Z M4.27083333,4.27083333 C4.27083333,2.85804167 5.42054167,1.70833333 6.83333333,1.70833333 C8.246125,1.70833333 9.39583333,2.85804167 9.39583333,4.27083333 L9.39583333,7.33472917 C8.60402083,7.0135625 7.74045833,6.83333333 6.83333333,6.83333333 C5.92620833,6.83333333 5.06264583,7.0135625 4.27083333,7.33472917 L4.27083333,4.27083333 Z M6.83333333,18.7916667 C4.00689583,18.7916667 1.70833333,16.4931042 1.70833333,13.6666667 C1.70833333,10.8402292 4.00689583,8.54166667 6.83333333,8.54166667 C9.65977083,8.54166667 11.9583333,10.8402292 11.9583333,13.6666667 C11.9583333,16.4931042 9.65977083,18.7916667 6.83333333,18.7916667 Z M8.54166667,13.6666667 C8.54166667,14.6096667 7.77633333,15.375 6.83333333,15.375 C5.89033333,15.375 5.125,14.6096667 5.125,13.6666667 C5.125,12.7236667 5.89033333,11.9583333 6.83333333,11.9583333 C7.77633333,11.9583333 8.54166667,12.7236667 8.54166667,13.6666667 Z" id="lock_icon"></path>
            </g>
        </g>
    </g>
</svg>