<?xml version="1.0" encoding="UTF-8"?>
<svg width="155px" height="32px" viewBox="0 0 155 32" version="1.1" xmlns="http://www.w3.org/2000/svg" xmlns:xlink="http://www.w3.org/1999/xlink">
    <!-- Generator: Sketch 61.2 (89653) - https://sketch.com -->
    <title>logo</title>
    <desc>Created with Sketch.</desc>
    <g id="Page-1" stroke="none" stroke-width="1" fill="none" fill-rule="evenodd">
        <g id="Desktop-HD-Copy" transform="translate(-150.000000, -69.000000)">
            <g id="logo" transform="translate(150.000000, 69.000000)">
                <path d="M20.263829,11.7104017 L14.4159349,11.7104017 C13.7060749,11.7104017 13.1314264,11.1390728 13.1314264,10.4347748 L13.1314264,1.2774391 C13.1314264,-0.00841623706 11.4339351,-0.48622839 10.7564083,0.609671043 L0.192280858,17.675017 C-0.333867948,18.525435 0.281931912,19.6198732 1.28572977,19.6198732 L7.1350936,19.6198732 C7.84348389,19.6198732 8.41813245,20.1912021 8.41813245,20.8955001 L8.41813245,30.0513746 C8.41813245,31.3386911 10.1156237,31.8165033 10.7946202,30.7206039 L21.357278,13.6552579 C21.8834268,12.8048399 21.2676269,11.7104017 20.263829,11.7104017" id="Fill-1" fill="#FF6282"></path>
                <path d="M46.6516456,14.7960191 C48.3194937,15.774695 49.3696203,17.4262107 49.3696203,19.597648 C49.3696203,23.3900173 46.4972152,25.8672908 42.1113924,25.8672908 L33,25.8672908 L33,4.45875435 L41.524557,4.45875435 C45.8177215,4.45875435 48.6592405,6.75252612 48.6592405,10.5448954 C48.6592405,12.3799128 47.9179747,13.8173431 46.6516456,14.7960191 Z M41.3701266,9.35213411 L38.5286076,9.35213411 L38.5286076,12.7163327 L41.3701266,12.7163327 C42.3275949,12.7163327 43.1306329,12.1352439 43.1306329,11.0342334 C43.1306329,9.99439021 42.358481,9.35213411 41.3701266,9.35213411 Z M41.956962,20.973911 C43.0688608,20.973911 43.8410127,20.2093205 43.8410127,19.1694773 C43.8410127,18.0684668 43.0688608,17.3650435 41.956962,17.3650435 L38.5286076,17.3650435 L38.5286076,20.973911 L41.956962,20.973911 Z M59.1913924,26.2954615 C54.6511392,26.2954615 50.9448101,22.7783448 50.9448101,18.2213849 C50.9448101,13.664425 54.6202532,10.1473083 59.1913924,10.1473083 C63.7934177,10.1473083 67.4379747,13.664425 67.4379747,18.2213849 C67.4379747,22.7783448 63.7934177,26.2954615 59.1913924,26.2954615 Z M59.1913924,21.4020818 C60.9827848,21.4020818 62.3108861,20.1175696 62.3108861,18.2213849 C62.3108861,16.3252003 60.9827848,15.0406881 59.1913924,15.0406881 C57.4308861,15.0406881 56.1027848,16.3252003 56.1027848,18.2213849 C56.1027848,20.1175696 57.4308861,21.4020818 59.1913924,21.4020818 Z M80.595443,4.45875435 L85.7225316,4.45875435 L85.7225316,25.8672908 L80.595443,25.8672908 L80.595443,24.4604441 C79.6070886,25.6226218 78.1863291,26.2954615 76.2096203,26.2954615 C72.0708861,26.2954615 68.9513924,22.8089285 68.9513924,18.2213849 C68.9513924,13.6338414 72.0708861,10.1473083 76.2096203,10.1473083 C78.1863291,10.1473083 79.6070886,10.820148 80.595443,11.9823257 L80.595443,4.45875435 Z M77.3524051,21.5549999 C79.2673418,21.5549999 80.595443,20.2093205 80.595443,18.2213849 C80.595443,16.2334494 79.2673418,14.88777 77.3524051,14.88777 C75.4374684,14.88777 74.1093671,16.2334494 74.1093671,18.2213849 C74.1093671,20.2093205 75.4374684,21.5549999 77.3524051,21.5549999 Z M98.478481,10.5754791 L104.161519,10.5754791 L98.88,25.6226218 C97.243038,30.2713326 94.3088608,32.1981009 89.5524051,31.9840155 L89.5524051,27.2129702 C91.7453165,27.2129702 92.7027848,26.7542159 93.3822785,25.3779528 L87.2050633,10.5754791 L92.9498734,10.5754791 L96.0693671,19.4447299 L98.478481,10.5754791 Z M112.933165,26.3260452 C108.238481,26.3260452 105.242532,24.1546079 104.099747,21.0044947 L108.825316,18.2825522 C109.597468,20.1175696 110.92557,21.1268292 113.087595,21.1268292 C115.033418,21.1268292 115.620253,20.4234058 115.620253,19.6893989 C115.620253,18.4660539 114.199494,18.0990504 111.450633,17.3344598 C108.053165,16.3557839 105.026329,14.643101 105.026329,10.6366463 C105.026329,6.63019162 108.331139,4 112.531646,4 C116.11443,4 119.048608,5.68209929 120.562025,8.89337976 L115.929114,11.5847386 C115.24962,9.99439021 114.137722,9.199216 112.562532,9.199216 C111.203544,9.199216 110.554937,9.84147209 110.554937,10.6060627 C110.554937,11.554155 111.327089,12.0740766 114.261266,12.9304181 C117.596962,13.909094 121.148861,15.132439 121.148861,19.6282316 C121.148861,23.8793553 117.813165,26.3260452 112.933165,26.3260452 Z M138.352405,25.8672908 L132.607595,25.8672908 L128.221772,19.352979 L128.221772,25.8672908 L123.094684,25.8672908 L123.094684,4.45875435 L128.221772,4.45875435 L128.221772,16.9674564 L132.206076,10.5754791 L138.136203,10.5754791 L132.947342,18.2213849 L138.352405,25.8672908 Z M149.316962,10.5754791 L155,10.5754791 L149.718481,25.6226218 C148.081519,30.2713326 145.147342,32.1981009 140.390886,31.9840155 L140.390886,27.2129702 C142.583797,27.2129702 143.541266,26.7542159 144.220759,25.3779528 L138.043544,10.5754791 L143.788354,10.5754791 L146.907848,19.4447299 L149.316962,10.5754791 Z" id="BodySky" fill="#1D1D1D" fill-rule="nonzero"></path>
            </g>
        </g>
    </g>
</svg>